<?xml version="1.0" standalone="no"?>
<!DOCTYPE svg PUBLIC "-//W3C//DTD SVG 20010904//EN"
 "http://www.w3.org/TR/2001/REC-SVG-20010904/DTD/svg10.dtd">
<svg version="1.0" xmlns="http://www.w3.org/2000/svg"
 width="500.000000pt" height="500.000000pt" viewBox="0 0 500.000000 500.000000"
 preserveAspectRatio="xMidYMid meet">

<g transform="translate(0.000000,500.000000) scale(0.100000,-0.100000)"
fill="#000000" stroke="none">
<path d="M530 3001 l0 -1498 88 -99 c108 -123 123 -144 151 -219 12 -33 33
-76 47 -96 34 -50 123 -89 229 -101 81 -9 2105 -3 2673 7 l282 6 0 1497 0
1498 -206 244 c-113 134 -214 246 -223 249 -9 3 -697 7 -1528 8 l-1513 3 0
-1499z m3440 -501 l0 -1470 -1470 0 -1470 0 0 1464 c0 1162 3 1465 13 1469 6
3 668 6 1470 6 l1457 1 0 -1470z"/>
<path d="M2370 3600 l0 -30 130 0 130 0 0 30 0 30 -130 0 -130 0 0 -30z"/>
<path d="M2254 3485 c-4 -8 -4 -22 0 -30 4 -13 37 -15 211 -15 167 0 205 -3
205 -14 0 -33 -212 -170 -360 -232 -49 -21 -90 -42 -90 -47 0 -20 22 -47 38
-47 17 0 216 95 263 126 25 16 27 16 85 -23 70 -47 157 -93 178 -93 15 0 36
29 36 48 0 5 -19 17 -42 26 -24 9 -72 34 -107 57 l-64 40 39 32 c67 54 124
114 124 130 0 9 -10 25 -22 37 -21 19 -34 20 -255 20 -198 0 -234 -2 -239 -15z"/>
<path d="M2416 2696 c-89 -33 -145 -120 -146 -224 0 -106 48 -182 142 -222 43
-18 65 -22 125 -18 92 6 154 41 198 112 27 44 30 58 30 126 0 68 -3 82 -30
126 -46 73 -106 106 -203 111 -50 2 -90 -2 -116 -11z m201 -77 c87 -54 99
-205 22 -276 -107 -98 -270 -43 -293 98 -24 152 139 260 271 178z"/>
<path d="M2240 1700 l0 -30 200 0 c110 0 200 -4 200 -9 0 -5 -41 -47 -90 -95
-80 -76 -175 -145 -315 -228 -42 -26 -44 -29 -33 -53 6 -14 18 -25 26 -25 18
0 149 78 221 133 l55 40 30 -18 c71 -41 175 -96 228 -119 l58 -26 15 29 15 29
-123 61 c-183 91 -176 76 -80 174 101 102 111 119 83 147 -19 19 -32 20 -255
20 l-235 0 0 -30z"/>
</g>
</svg>
